# xmcd
# Track frame offsets:
# 150
# 19956
# 38055
# 60701
# 80151
# 95742
# 111882
# 126438
# 141216
# 155069
# 176520
# 194600
# 213751
# 227485
# 243465
# 259150
# 272398
# 292835
# 308959
#
# Disc length: 4422 seconds
# Revision: 1
# Processed by: cddbd v1.5.1PL0 Copyright (c) Steve Scherf et al.
# Submitted via: VisiTrax 2.9.10.228 - For more info visit www.synapsa.com
#
DISCID=17114413
DTITLE=Various Artist - Blues Cruise - Volume 2 - Cruisin' The Rooster Blue
DTITLE=s Catalog
DYEAR=2000
DGENRE=Blues
TTITLE0=Lonnie Shields - Fistful of Dollars
TTITLE1=Willie Cobbs - Eatin' Dry Onions
TTITLE2=Larry Davis - Worried Dream
TTITLE3=James "Super Chikan" Johnson - Down In The Delta
TTITLE4=Roosevelt Booba Barnes and the Playboys - Rocking Daddy
TTITLE5=Lonnie Pitchford - Elvira
TTITLE6=Carey and Lurrie Bell - Rollin' And Tumblin'
TTITLE7=Eddy Clearwater - I Wouldn't Lay My Guitar Down
TTITLE8=Good Rockin' Charles - Eyesight To The Blind
TTITLE9=Valerie Wellington - Bad Avenue
TTITLE10=Eddie C. Cambell - King Of The Jungle
TTITLE11=Magic Slim and the Teardrops - Give Me Back My Wig
TTITLE12=Big Jack Johnson - Hummin' Blues, Part 1
TTITLE13=Robert Bilbo Waker - How Much More - Mama Talk To Your Daughter
TTITLE14=Eddie Shaw - Dunkin' Donut Woman
TTITLE15=Johnny Rawls and L.C. Luckett - Can't Sleep at Night
TTITLE16=D.C. Bellamy - I Can't Leave You Alone
TTITLE17=Philadelphia Jerry Ricks - James Alley Blues
TTITLE18=Foore Guitar Wells and The Walnut Street Blues Band - Walkin' And Cryin
TTITLE18=' The Blues
EXTD=
EXTT0=
EXTT1=
EXTT2=
EXTT3=
EXTT4=
EXTT5=
EXTT6=
EXTT7=
EXTT8=
EXTT9=
EXTT10=
EXTT11=
EXTT12=
EXTT13=
EXTT14=
EXTT15=
EXTT16=
EXTT17=
EXTT18=
PLAYORDER=
